<?xml version="1.0" encoding="iso-8859-1"?>
<!-- Generator: Adobe Illustrator 19.0.0, SVG Export Plug-In . SVG Version: 6.00 Build 0)  -->
<svg version="1.1" id="Capa_1" xmlns="http://www.w3.org/2000/svg" xmlns:xlink="http://www.w3.org/1999/xlink" x="0px" y="0px"
	 viewBox="0 0 469.337 469.337" style="enable-background:new 0 0 469.337 469.337;" xml:space="preserve">
<circle style="fill:#F57C04;" cx="245.339" cy="202.67" r="202.67"/>
<circle style="fill:#F55600;" cx="245.339" cy="202.67" r="181.33"/>
<circle style="fill:#744EC1;" cx="202.669" cy="202.67" r="160"/>
<circle style="fill:#653BBA;" cx="202.669" cy="202.67" r="138.67"/>
<circle style="fill:#5628B4;" cx="202.669" cy="202.67" r="96"/>
<g>
	<circle style="fill:#3E0AA9;" cx="202.669" cy="202.67" r="53.33"/>
	<path style="fill:#3E0AA9;" d="M202.669,42.67c-29.455,0-53.333,23.878-53.333,53.333s23.878,53.333,53.333,53.333l0.092,0l0.033,0
		l0.059,0l0.04,0l0.053,0l0.04,0l0.052,0l0.043,0l0.048,0l0.045,0l0.047,0l0.046,0l0.044,0l0.048-0.001l0.029,0l0.123-0.002l0.025,0
		l0.06-0.001l0.03-0.001l0.057-0.001l0.034-0.001l0.058-0.001l0.03-0.001l0.062-0.001l0.026-0.001l0.064-0.002l0.021,0l0.069-0.002
		l0.005,0c0.109-0.003,0.219-0.006,0.327-0.009l0.015,0l0.069-0.002l0.021-0.001l0.066-0.002l0.022-0.001l0.066-0.002l0.023-0.001
		l0.064-0.002l0.023-0.001l0.068-0.003l0.005,0c0.073-0.003,0.146-0.006,0.219-0.009l0.04-0.002l0.041-0.002l0.053-0.002
		l0.035-0.002l0.063-0.003l0.025-0.001l0.073-0.004l0.016-0.001c0.126-0.006,0.252-0.013,0.378-0.02
		c5.882-0.336,10.377-5.377,10.04-11.259c-0.323-5.642-4.989-10.053-10.64-10.058c-0.205,0-0.411,0.006-0.618,0.018
		c-0.621,0.036-1.247,0.053-1.876,0.054c-17.673,0-32-14.327-32-32s14.327-32,32-32c5.845,0.736,11.19-3.49,11.926-9.335
		c0.736-5.845-3.406-11.179-9.251-11.915C204.459,42.642,203.564,42.642,202.669,42.67L202.669,42.67z"/>
	<path style="fill:#3E0AA9;" d="M140,235.631c-29.455,0-53.333,23.878-53.333,53.333s23.878,53.333,53.333,53.333l0.092,0l0.033,0
		l0.059,0l0.04,0l0.053,0l0.04,0l0.052,0l0.043,0l0.048,0l0.045,0l0.047,0l0.046,0l0.044,0l0.048-0.001l0.029,0l0.123-0.002l0.025,0
		l0.06-0.001l0.03-0.001l0.057-0.001l0.034-0.001l0.058-0.001l0.03-0.001l0.062-0.001l0.026-0.001l0.064-0.002l0.021,0l0.069-0.002
		l0.005,0c0.109-0.003,0.219-0.006,0.327-0.009l0.015,0l0.069-0.002l0.021-0.001l0.066-0.002l0.022-0.001l0.066-0.002l0.023-0.001
		l0.064-0.002l0.023-0.001l0.068-0.003l0.005,0c0.073-0.003,0.146-0.006,0.219-0.009l0.04-0.002l0.041-0.002l0.053-0.002
		l0.035-0.002l0.063-0.003l0.025-0.001l0.073-0.004l0.016-0.001c0.126-0.006,0.252-0.013,0.378-0.02
		c5.882-0.336,10.377-5.377,10.04-11.258c-0.323-5.642-4.989-10.053-10.64-10.058c-0.205,0-0.411,0.006-0.618,0.018
		c-0.621,0.036-1.247,0.053-1.876,0.054c-17.673,0-32-14.327-32-32c0-17.673,14.327-32,32-32c5.891,0,10.667-4.776,10.667-10.667
		C150.667,240.407,145.891,235.631,140,235.631L140,235.631z"/>
	<path style="fill:#3E0AA9;" d="M101.231,116.374c-29.455,0-53.333,23.878-53.333,53.333s23.878,53.333,53.333,53.333l0.092,0
		l0.033,0l0.059,0l0.04,0l0.053,0l0.04,0l0.052,0l0.043,0l0.048,0l0.045,0l0.047,0l0.046,0l0.044,0l0.048-0.001l0.029,0l0.123-0.002
		l0.025,0l0.06-0.001l0.03-0.001l0.057-0.001l0.034-0.001l0.058-0.001l0.03-0.001l0.062-0.001l0.026-0.001l0.064-0.002l0.021,0
		l0.069-0.002l0.005,0c0.109-0.003,0.219-0.006,0.327-0.009l0.015,0l0.069-0.002l0.021-0.001l0.066-0.002l0.022-0.001l0.066-0.002
		l0.023-0.001l0.064-0.002l0.023-0.001l0.068-0.003l0.005,0c0.073-0.003,0.146-0.006,0.219-0.009l0.04-0.002l0.041-0.002
		l0.053-0.002l0.035-0.002l0.063-0.003l0.025-0.001l0.073-0.004l0.016-0.001c0.126-0.006,0.252-0.013,0.378-0.02
		c5.882-0.336,10.377-5.377,10.04-11.259c-0.323-5.642-4.989-10.053-10.64-10.058c-0.205,0-0.411,0.006-0.618,0.018
		c-0.621,0.036-1.247,0.053-1.876,0.054c-17.673,0-32-14.327-32-32s14.327-32,32-32c5.891,0.006,10.672-4.764,10.678-10.656
		s-4.764-10.672-10.656-10.678C101.245,116.374,101.238,116.374,101.231,116.374L101.231,116.374z"/>
	<path style="fill:#3E0AA9;" d="M304.1,116.374c-29.455,0-53.333,23.878-53.333,53.333s23.878,53.333,53.333,53.333l0.092,0l0.033,0
		l0.059,0l0.04,0l0.053,0l0.04,0l0.052,0l0.043,0l0.048,0l0.045,0l0.047,0l0.046,0l0.044,0l0.048-0.001l0.029,0l0.123-0.002l0.025,0
		l0.06-0.001l0.03-0.001l0.057-0.001l0.034-0.001l0.058-0.001l0.03-0.001l0.062-0.001l0.026-0.001l0.064-0.002l0.021,0l0.069-0.002
		l0.005,0c0.109-0.003,0.219-0.006,0.327-0.009l0.015,0l0.069-0.002l0.021-0.001l0.066-0.002l0.022-0.001l0.066-0.002l0.023-0.001
		l0.064-0.002l0.023-0.001l0.068-0.003l0.005,0c0.073-0.003,0.146-0.006,0.219-0.009l0.04-0.002l0.041-0.002l0.053-0.002
		l0.034-0.002l0.063-0.003l0.025-0.001l0.073-0.004l0.016-0.001c0.126-0.006,0.252-0.013,0.378-0.02
		c5.882-0.336,10.377-5.377,10.04-11.259c-0.323-5.642-4.989-10.053-10.64-10.058c-0.205,0-0.411,0.006-0.618,0.018
		c-0.621,0.036-1.247,0.053-1.876,0.054c-17.673,0-32-14.327-32-32s14.327-32,32-32c5.891,0.006,10.672-4.764,10.678-10.656
		c0.006-5.891-4.764-10.672-10.656-10.678C304.115,116.374,304.108,116.374,304.1,116.374L304.1,116.374z"/>
	<path style="fill:#3E0AA9;" d="M265.386,235.631c-29.455,0-53.333,23.878-53.333,53.333s23.878,53.333,53.333,53.333l0.092,0
		l0.033,0l0.059,0l0.04,0l0.053,0l0.04,0l0.052,0l0.043,0l0.048,0l0.045,0l0.047,0l0.046,0l0.044,0l0.048-0.001l0.029,0l0.123-0.002
		l0.025,0l0.06-0.001l0.03-0.001l0.057-0.001l0.034-0.001l0.058-0.001l0.03-0.001l0.062-0.001l0.026-0.001l0.064-0.002l0.021,0
		l0.069-0.002l0.005,0c0.109-0.003,0.219-0.006,0.327-0.009l0.015,0l0.069-0.002l0.021-0.001l0.066-0.002l0.022-0.001l0.066-0.002
		l0.023-0.001l0.064-0.002l0.023-0.001l0.068-0.003l0.005,0c0.073-0.003,0.146-0.006,0.219-0.009l0.04-0.002l0.041-0.002
		l0.053-0.002l0.034-0.002l0.063-0.003l0.025-0.001l0.073-0.004l0.016-0.001c0.126-0.006,0.252-0.013,0.378-0.02
		c5.882-0.336,10.377-5.377,10.04-11.258c-0.323-5.642-4.989-10.053-10.64-10.058c-0.205,0-0.411,0.006-0.618,0.018
		c-0.621,0.036-1.247,0.053-1.876,0.054c-17.673,0-32-14.327-32-32c0-17.673,14.327-32,32-32c5.891,0,10.667-4.776,10.667-10.667
		C276.053,240.407,271.277,235.631,265.386,235.631L265.386,235.631z"/>
</g>
<path style="fill:#5628B4;" d="M405.335,213.337v106.667c0,35.346,28.654,64,64,64h0h0v85.333h0c-70.692,0-128-57.307-128-128l0,0
	v-128L405.335,213.337z"/>
<path id="SVGCleanerId_0" style="fill:#F7B236;" d="M202.669,0.003C90.739,0.003,0.002,90.74,0.002,202.67
	s90.737,202.667,202.667,202.667S405.335,314.6,405.335,202.67S314.598,0.003,202.669,0.003L202.669,0.003z M202.669,42.67
	c29.455,0,53.333,23.878,53.333,53.333s-23.878,53.333-53.333,53.333s-53.333-23.878-53.333-53.333c0,0,0,0,0,0
	c0-29.455,23.877-53.333,53.332-53.333C202.668,42.67,202.668,42.67,202.669,42.67z M50.499,153.227
	c9.102-28.014,39.19-43.345,67.204-34.243c28.014,9.102,43.345,39.19,34.243,67.204s-39.19,43.345-67.204,34.243
	c0,0-0.001,0-0.001,0C56.728,211.329,41.398,181.241,50.499,153.227C50.499,153.227,50.499,153.227,50.499,153.227z
	 M183.119,320.313c-17.313,23.83-50.666,29.113-74.496,11.799s-29.113-50.666-11.8-74.496s50.666-29.113,74.496-11.8l0,0
	C195.149,263.131,200.432,296.483,183.119,320.313z M170.669,202.67c0-17.673,14.327-32,32-32s32,14.327,32,32s-14.327,32-32,32
	C184.996,234.67,170.669,220.343,170.669,202.67C170.669,202.67,170.669,202.67,170.669,202.67z M296.714,332.113
	c-23.83,17.313-57.183,12.03-74.496-11.799c-17.313-23.83-12.03-57.183,11.799-74.496s57.183-12.03,74.496,11.799
	C325.826,281.447,320.544,314.799,296.714,332.113z M320.596,220.43c-28.013,9.102-58.101-6.229-67.204-34.242
	c-9.102-28.013,6.229-58.101,34.242-67.204s58.101,6.229,67.204,34.242c0,0,0,0,0,0C363.94,181.241,348.609,211.328,320.596,220.43
	C320.596,220.43,320.596,220.43,320.596,220.43z"/>
<g>
	<path id="SVGCleanerId_0_1_" style="fill:#F7B236;" d="M202.669,0.003C90.739,0.003,0.002,90.74,0.002,202.67
		s90.737,202.667,202.667,202.667S405.335,314.6,405.335,202.67S314.598,0.003,202.669,0.003L202.669,0.003z M202.669,42.67
		c29.455,0,53.333,23.878,53.333,53.333s-23.878,53.333-53.333,53.333s-53.333-23.878-53.333-53.333c0,0,0,0,0,0
		c0-29.455,23.877-53.333,53.332-53.333C202.668,42.67,202.668,42.67,202.669,42.67z M50.499,153.227
		c9.102-28.014,39.19-43.345,67.204-34.243c28.014,9.102,43.345,39.19,34.243,67.204s-39.19,43.345-67.204,34.243
		c0,0-0.001,0-0.001,0C56.728,211.329,41.398,181.241,50.499,153.227C50.499,153.227,50.499,153.227,50.499,153.227z
		 M183.119,320.313c-17.313,23.83-50.666,29.113-74.496,11.799s-29.113-50.666-11.8-74.496s50.666-29.113,74.496-11.8l0,0
		C195.149,263.131,200.432,296.483,183.119,320.313z M170.669,202.67c0-17.673,14.327-32,32-32s32,14.327,32,32s-14.327,32-32,32
		C184.996,234.67,170.669,220.343,170.669,202.67C170.669,202.67,170.669,202.67,170.669,202.67z M296.714,332.113
		c-23.83,17.313-57.183,12.03-74.496-11.799c-17.313-23.83-12.03-57.183,11.799-74.496s57.183-12.03,74.496,11.799
		C325.826,281.447,320.544,314.799,296.714,332.113z M320.596,220.43c-28.013,9.102-58.101-6.229-67.204-34.242
		c-9.102-28.013,6.229-58.101,34.242-67.204s58.101,6.229,67.204,34.242c0,0,0,0,0,0C363.94,181.241,348.609,211.328,320.596,220.43
		C320.596,220.43,320.596,220.43,320.596,220.43z"/>
</g>
<path style="fill:#F9C15D;" d="M202.669,21.337c-100.148,0-181.333,81.186-181.333,181.333s81.186,181.333,181.333,181.333
	s181.333-81.186,181.333-181.333l0,0C384.002,102.522,302.817,21.337,202.669,21.337C202.669,21.337,202.669,21.337,202.669,21.337
	L202.669,21.337z M202.669,42.67c29.455,0,53.333,23.878,53.333,53.333s-23.878,53.333-53.333,53.333s-53.333-23.878-53.333-53.333
	c0,0,0,0,0,0c0-29.455,23.877-53.333,53.332-53.333C202.668,42.67,202.668,42.67,202.669,42.67z M50.499,153.227
	c9.102-28.014,39.19-43.345,67.204-34.243c28.014,9.102,43.345,39.19,34.243,67.204s-39.19,43.345-67.204,34.243
	c0,0-0.001,0-0.001,0C56.728,211.329,41.398,181.241,50.499,153.227C50.499,153.227,50.499,153.227,50.499,153.227z
	 M183.119,320.313c-17.313,23.83-50.666,29.113-74.496,11.799s-29.113-50.666-11.8-74.496s50.666-29.113,74.496-11.8l0,0
	C195.149,263.131,200.432,296.483,183.119,320.313z M170.669,202.67c0-17.673,14.327-32,32-32s32,14.327,32,32s-14.327,32-32,32
	C184.996,234.67,170.669,220.343,170.669,202.67C170.669,202.67,170.669,202.67,170.669,202.67z M296.714,332.113
	c-23.83,17.313-57.183,12.03-74.496-11.799c-17.313-23.83-12.03-57.183,11.799-74.496s57.183-12.03,74.496,11.799
	C325.826,281.447,320.544,314.799,296.714,332.113z M320.596,220.43c-28.013,9.102-58.101-6.229-67.204-34.242
	c-9.102-28.013,6.229-58.101,34.242-67.204s58.101,6.229,67.204,34.242c0,0,0,0,0,0C363.94,181.241,348.609,211.328,320.596,220.43
	C320.596,220.43,320.596,220.43,320.596,220.43z"/>
<path style="fill:#F59500;" d="M202.669,0.003l-0.159,0h-0.027l-0.138,0h-0.016l-0.148,0h-0.012l-0.143,0l-0.033,0l-0.107,0
	l-0.083,0l-0.031,0c-0.093,0-0.187,0.001-0.28,0.001l-0.027,0l-0.081,0c-11.781,0.126-21.23,9.779-21.104,21.56
	c0.125,11.716,9.676,21.138,21.392,21.105l0.062,0l0.934-0.003c88.224,0,160,71.776,160,160s-71.776,160-160,160
	c-21.366,0.046-42.521-4.215-62.203-12.529c-10.851-4.59-23.369,0.485-27.959,11.336s0.485,23.369,11.336,27.959
	c0.006,0.003,0.013,0.005,0.019,0.008c3.027,1.279,6.091,2.485,9.193,3.62l0.005,0.002l0.142,0.052l0.001,0.001l0.141,0.051
	l0.008,0.003l0.139,0.051l0.004,0.001l0.14,0.051l0.007,0.003l0.141,0.051l0.001,0l0.144,0.052l0.003,0.001
	c0.049,0.018,0.095,0.034,0.144,0.052l0.001,0l0.141,0.051l0.009,0.003l0.137,0.049l0.008,0.003l0.137,0.049l0.01,0.004l0.137,0.049
	l0.008,0.003l0.135,0.048l0.016,0.006l0.13,0.046l0.015,0.005c0.042,0.015,0.088,0.031,0.131,0.046l0.016,0.006l0.13,0.046
	l0.015,0.005l0.128,0.045l0.023,0.008l0.123,0.043l0.022,0.008l0.124,0.043l0.023,0.008l0.124,0.043l0.021,0.007l0.122,0.043
	l0.027,0.009l0.12,0.042l0.025,0.009l0.122,0.042l0.025,0.009l0.122,0.042l0.023,0.008l0.122,0.042l0.028,0.01l0.118,0.041
	l0.027,0.01l0.118,0.04l0.031,0.011l0.117,0.04l0.028,0.009l0.118,0.04l0.03,0.01l0.116,0.04l0.031,0.01l0.115,0.039l0.034,0.012
	l0.113,0.038l0.033,0.011l0.113,0.038l0.038,0.013l0.108,0.036l0.038,0.013l0.109,0.037l0.037,0.013l0.111,0.037l0.035,0.012
	l0.11,0.037l0.041,0.013l0.107,0.036l0.04,0.013l0.106,0.035l0.044,0.014l0.104,0.034l0.042,0.014l0.105,0.035l0.043,0.014
	l0.104,0.034l0.044,0.015l0.104,0.034l0.044,0.015l0.105,0.035l0.04,0.013l0.108,0.035l0.041,0.013l0.107,0.035l0.04,0.013
	l0.106,0.035l0.043,0.014l0.107,0.035l0.038,0.012l0.106,0.035l0.048,0.015l0.099,0.032l0.049,0.016l0.1,0.032l0.049,0.016
	l0.099,0.032l0.048,0.016l0.1,0.032l0.049,0.016l0.1,0.032l0.044,0.014l0.104,0.033l0.047,0.015l0.102,0.032l0.046,0.015l0.1,0.032
	l0.055,0.018l0.092,0.029l0.054,0.017l0.095,0.03l0.054,0.017l0.096,0.03l0.05,0.016l0.097,0.031l0.053,0.017l0.096,0.03
	l0.051,0.016l0.096,0.03l0.054,0.017l0.095,0.03l0.052,0.016l0.095,0.03l0.058,0.018l0.09,0.028l0.057,0.017l0.09,0.028l0.061,0.019
	l0.089,0.027l0.057,0.018l0.092,0.028l0.061,0.019l0.086,0.027l0.063,0.019l0.087,0.026l0.063,0.019l0.087,0.026l0.061,0.018
	l0.088,0.027l0.064,0.02l0.085,0.026l0.062,0.019l0.087,0.026l0.064,0.019l0.085,0.026l0.061,0.018l0.088,0.027l0.064,0.019
	l0.086,0.026l0.061,0.018l0.089,0.026l0.061,0.018l0.089,0.026l0.06,0.018l0.087,0.026l0.066,0.02l0.084,0.025l0.064,0.019
	l0.084,0.025l0.068,0.02l0.083,0.024l0.064,0.019l0.085,0.025l0.066,0.019l0.083,0.024l0.066,0.019l0.084,0.025l0.066,0.019
	l0.085,0.024l0.063,0.018l0.085,0.025l0.069,0.02l0.081,0.023l0.067,0.02l0.081,0.024l0.071,0.02l0.08,0.023l0.066,0.019
	l0.084,0.024l0.068,0.019l0.082,0.023l0.068,0.02l0.081,0.023l0.071,0.02l0.08,0.023l0.066,0.019l0.083,0.024l0.07,0.02l0.079,0.022
	l0.07,0.02l0.081,0.023l0.068,0.019l0.083,0.023l0.066,0.019l0.083,0.023l0.07,0.02l0.079,0.022l0.071,0.02l0.08,0.022l0.071,0.02
	l0.079,0.022l0.069,0.019l0.082,0.023l0.072,0.02l0.077,0.021l0.071,0.02l0.082,0.023l0.068,0.019l0.083,0.023l0.067,0.018
	l0.083,0.023l0.071,0.02l0.079,0.021l0.072,0.02l0.079,0.022l0.072,0.02l0.079,0.022l0.07,0.019l0.081,0.022l0.072,0.019
	l0.079,0.022l0.069,0.019l0.082,0.022l0.07,0.019l0.081,0.022l0.07,0.019l0.079,0.021l0.076,0.02l0.075,0.02l0.076,0.02l0.075,0.02
	l0.076,0.02l0.077,0.021l0.07,0.018l0.081,0.022l0.072,0.019l0.08,0.021l0.07,0.018l0.08,0.021l0.074,0.019l0.078,0.021l0.072,0.019
	l0.078,0.02l0.077,0.02l0.074,0.019l0.075,0.02l0.078,0.02l0.074,0.019l0.077,0.02l0.074,0.019l0.077,0.02l0.079,0.02l0.072,0.018
	l0.079,0.02l0.074,0.019l0.08,0.021l0.071,0.018l0.08,0.02l0.072,0.018l0.082,0.021l0.07,0.018l0.081,0.021l0.071,0.018l0.082,0.021
	l0.07,0.018l0.08,0.02l0.072,0.018l0.083,0.021l0.068,0.017l0.082,0.021l0.071,0.018l0.081,0.02l0.073,0.018l0.077,0.019
	l0.075,0.018l0.08,0.02l0.072,0.018l0.079,0.019l0.074,0.018l0.077,0.019l0.077,0.019l0.074,0.018l0.075,0.018l0.088,0.021
	l0.062,0.015l0.089,0.022l0.064,0.016l0.087,0.021l0.067,0.016l0.083,0.02l0.068,0.017l0.09,0.022l0.062,0.015l0.087,0.021
	l0.066,0.016l0.087,0.021l0.066,0.016l0.083,0.02l0.07,0.017l0.086,0.02l0.066,0.016l0.085,0.02l0.07,0.016l0.084,0.02l0.068,0.016
	l0.083,0.019l0.071,0.017l0.082,0.019l0.072,0.017l0.077,0.018l0.076,0.018l0.08,0.019l0.072,0.017l0.08,0.018l0.072,0.017
	l0.087,0.02l0.066,0.015l0.083,0.019l0.07,0.016l0.084,0.019l0.07,0.016l0.083,0.019l0.068,0.016l0.09,0.02l0.063,0.014l0.087,0.02
	l0.068,0.015l0.088,0.02l0.065,0.015l0.087,0.02l0.066,0.015l0.091,0.02l0.062,0.014l0.09,0.02l0.064,0.014l0.092,0.021l0.061,0.014
	l0.089,0.02l0.064,0.014l0.091,0.02l0.063,0.014l0.089,0.019l0.065,0.014l0.09,0.02l0.063,0.014l0.088,0.019l0.066,0.014l0.092,0.02
	l0.061,0.013l0.091,0.02l0.064,0.014l0.089,0.019l0.066,0.014l0.085,0.018l0.069,0.015l0.088,0.019l0.065,0.014l0.087,0.019
	l0.068,0.014l0.087,0.019l0.067,0.014l0.085,0.018l0.07,0.015l0.087,0.018l0.067,0.014l0.086,0.018l0.069,0.015l0.086,0.018
	l0.068,0.014l0.085,0.018l0.071,0.015l0.084,0.018l0.07,0.014l0.081,0.017l0.074,0.015l0.082,0.017l0.072,0.015l0.082,0.017
	l0.072,0.015l0.089,0.018l0.064,0.013l0.09,0.018l0.064,0.013l0.09,0.018l0.065,0.013l0.087,0.017l0.068,0.014l0.088,0.018
	l0.067,0.013l0.088,0.018l0.066,0.013l0.091,0.018l0.064,0.013l0.087,0.017l0.068,0.014l0.09,0.018l0.064,0.013l0.087,0.017
	l0.069,0.013l0.086,0.017l0.069,0.013l0.085,0.017l0.069,0.014l0.088,0.017l0.068,0.013l0.085,0.016l0.07,0.014l0.086,0.017
	l0.068,0.013l0.085,0.016l0.07,0.013l0.085,0.016l0.071,0.013l0.081,0.016l0.075,0.014l0.083,0.016l0.072,0.014l0.082,0.016
	l0.073,0.014l0.085,0.016l0.07,0.013l0.083,0.016l0.074,0.014l0.081,0.015l0.075,0.014l0.08,0.015l0.074,0.014l0.085,0.016
	l0.071,0.013l0.084,0.016l0.071,0.013l0.089,0.016l0.066,0.012l0.088,0.016l0.069,0.013l0.085,0.016l0.07,0.013l0.087,0.016
	l0.068,0.012l0.091,0.016l0.065,0.012l0.088,0.016l0.068,0.012l0.089,0.016l0.068,0.012l0.086,0.015l0.07,0.012l0.086,0.015
	l0.07,0.012l0.085,0.015l0.07,0.012l0.089,0.016l0.067,0.012l0.085,0.015l0.073,0.013l0.083,0.015l0.072,0.012l0.085,0.015
	l0.071,0.012l0.089,0.015l0.068,0.012l0.086,0.015l0.071,0.012l0.086,0.015l0.07,0.012l0.089,0.015l0.066,0.011l0.094,0.016
	l0.062,0.01l0.091,0.015l0.066,0.011l0.09,0.015l0.066,0.011l0.089,0.015l0.068,0.011l0.089,0.015l0.068,0.011l0.088,0.015
	l0.068,0.011l0.09,0.015l0.066,0.011l0.089,0.015l0.067,0.011l0.095,0.015l0.061,0.01l0.095,0.015l0.061,0.01l0.103,0.016
	l0.052,0.008l0.101,0.016l0.057,0.009l0.102,0.016l0.054,0.009l0.105,0.017l0.052,0.008l0.107,0.017l0.05,0.008l0.098,0.015
	l0.063,0.01l0.091,0.014l0.066,0.01l0.089,0.014l0.069,0.011l0.086,0.013l0.072,0.011l0.085,0.013l0.072,0.011l0.089,0.014
	l0.07,0.01l0.083,0.013l0.074,0.011l0.087,0.013l0.07,0.011l0.087,0.013l0.069,0.01l0.095,0.014l0.062,0.009l0.091,0.014l0.067,0.01
	l0.09,0.013l0.068,0.01l0.087,0.013l0.072,0.011l0.088,0.013l0.069,0.01l0.087,0.013l0.072,0.01l0.09,0.013l0.067,0.01l0.087,0.013
	l0.071,0.01l0.089,0.013l0.069,0.01l0.086,0.012l0.072,0.01l0.089,0.013l0.068,0.01l0.088,0.012l0.07,0.01l0.092,0.013l0.066,0.009
	l0.092,0.013l0.066,0.009l0.092,0.013l0.066,0.009l0.086,0.012l0.072,0.01l0.087,0.012l0.071,0.01l0.085,0.011l0.074,0.01
	l0.085,0.011l0.073,0.01l0.083,0.011l0.076,0.01l0.084,0.011l0.075,0.01l0.079,0.01l0.079,0.01l0.082,0.011l0.077,0.01l0.079,0.01
	l0.079,0.01l0.083,0.011l0.075,0.01l0.081,0.01l0.077,0.01l0.083,0.011l0.075,0.01l0.084,0.011l0.074,0.009l0.088,0.011l0.07,0.009
	l0.085,0.011l0.074,0.009l0.085,0.011l0.074,0.009l0.085,0.01l0.074,0.009l0.085,0.01l0.074,0.009l0.082,0.01l0.076,0.009
	l0.089,0.011l0.069,0.008l0.09,0.011l0.068,0.008l0.094,0.011l0.064,0.008l0.094,0.011l0.064,0.008l0.095,0.011l0.064,0.007
	l0.09,0.011l0.069,0.008l0.089,0.01l0.071,0.008l0.09,0.01l0.066,0.008l0.097,0.011l0.063,0.007l0.09,0.01l0.07,0.008l0.09,0.01
	l0.069,0.008l0.087,0.01l0.073,0.008l0.086,0.01l0.074,0.008l0.085,0.01l0.074,0.008l0.086,0.01l0.074,0.008l0.085,0.009
	l0.074,0.008l0.083,0.009l0.077,0.008l0.08,0.009l0.079,0.009l0.083,0.009l0.076,0.008l0.081,0.009l0.079,0.008l0.083,0.009
	l0.076,0.008l0.083,0.009l0.077,0.008l0.084,0.009l0.076,0.008l0.082,0.008l0.078,0.008l0.083,0.009l0.076,0.008l0.085,0.009
	l0.074,0.007l0.088,0.009l0.072,0.007l0.085,0.008l0.076,0.008l0.085,0.008l0.075,0.008l0.084,0.008l0.076,0.007l0.084,0.008
	l0.076,0.007l0.083,0.008l0.077,0.008l0.084,0.008l0.076,0.007l0.081,0.008l0.079,0.007l0.083,0.008l0.077,0.007l0.083,0.008
	l0.077,0.007l0.081,0.008l0.079,0.007l0.081,0.008l0.079,0.007l0.081,0.008l0.079,0.007l0.078,0.007l0.081,0.007l0.083,0.007
	l0.076,0.007l0.086,0.008l0.074,0.007l0.088,0.008l0.072,0.006l0.089,0.008l0.072,0.006l0.087,0.007l0.074,0.007l0.081,0.007
	l0.079,0.007l0.078,0.007l0.083,0.007l0.075,0.006l0.085,0.007l0.08,0.007l0.079,0.007l0.082,0.007l0.079,0.006l0.089,0.007
	l0.071,0.006l0.092,0.007l0.068,0.006l0.091,0.007l0.07,0.006l0.089,0.007l0.071,0.006l0.09,0.007l0.07,0.005l0.089,0.007
	l0.072,0.006l0.083,0.006l0.078,0.006l0.083,0.006l0.076,0.006l0.102,0.008l0.057,0.004l0.098,0.007l0.064,0.005l0.09,0.007
	l0.07,0.005l0.082,0.006l0.081,0.006l0.077,0.006l0.083,0.006l0.074,0.005l0.088,0.006l0.067,0.005l0.094,0.007l0.064,0.004
	l0.096,0.007l0.071,0.005l0.09,0.006l0.067,0.005l0.094,0.006l0.064,0.004l0.098,0.007l0.057,0.004l0.104,0.007l0.065,0.004
	l0.096,0.006l0.065,0.004l0.096,0.006l0.063,0.004l0.099,0.006l0.066,0.004l0.094,0.006l0.078,0.005l0.083,0.005l0.081,0.005
	l0.08,0.005l0.083,0.005l0.079,0.005l0.075,0.005l0.087,0.005l0.076,0.004l0.085,0.005l0.068,0.004l0.094,0.006l0.063,0.004
	l0.098,0.006l0.066,0.004l0.096,0.006l0.076,0.004l0.085,0.005l0.092,0.005l0.067,0.004l0.099,0.005l0.064,0.004l0.083,0.005
	l0.08,0.004l0.074,0.004l0.089,0.005l0.068,0.004l0.094,0.005L192,405.06l0.084,0.004l0.081,0.004l0.081,0.004l0.076,0.004
	l0.087,0.004l0.066,0.003l0.096,0.005l0.07,0.003l0.091,0.005l0.076,0.004l0.086,0.004l0.08,0.004l0.082,0.004l0.074,0.003
	l0.089,0.004l0.064,0.003l0.098,0.004l0.061,0.003l0.1,0.004l0.071,0.003l0.091,0.004l0.066,0.003l0.096,0.004l0.07,0.003
	l0.092,0.004l0.073,0.003l0.089,0.004l0.085,0.003l0.077,0.003l0.086,0.003l0.076,0.003l0.083,0.003l0.08,0.003l0.08,0.003
	l0.082,0.003l0.087,0.003l0.075,0.003l0.092,0.003l0.07,0.003l0.081,0.003l0.083,0.003l0.069,0.002l0.092,0.003l0.092,0.003
	l0.07,0.002l0.089,0.003l0.074,0.003l0.081,0.003l0.082,0.003l0.075,0.002l0.089,0.003l0.065,0.002l0.098,0.003l0.051,0.002
	l0.111,0.003l0.057,0.002l0.105,0.003l0.071,0.002l0.092,0.003l0.076,0.002l0.087,0.002l0.083,0.002l0.079,0.002l0.083,0.002
	l0.08,0.002l0.087,0.002l0.075,0.002l0.083,0.002l0.081,0.002l0.079,0.002l0.082,0.002l0.102,0.002l0.061,0.001l0.115,0.003
	l0.047,0.001l0.109,0.002l0.055,0.001l0.098,0.002l0.065,0.001l0.091,0.002l0.072,0.001l0.09,0.002l0.073,0.001l0.077,0.001
	l0.087,0.002l0.062,0.001l0.101,0.002l0.066,0.001l0.098,0.002l0.059,0.001l0.103,0.002l0.081,0.001l0.083,0.001l0.076,0.001
	l0.087,0.001l0.082,0.001l0.081,0.001l0.069,0.001l0.095,0.001l0.061,0.001l0.102,0.001l0.049,0.001l0.279,0.003l0.033,0
	l0.131,0.001l0.029,0c0.154,0.001,0.307,0.003,0.46,0.004l0.104,0.001l0.061,0l0.076,0l0.088,0l0.048,0l0.115,0.001l0.249,0.001
	c0.243,0.001,0.489,0.001,0.733,0.001c111.93,0,202.667-90.737,202.667-202.667S314.599,0.003,202.669,0.003L202.669,0.003z"/>
<path style="fill:#F69900;" d="M66.693,61.335c-6.082-0.007-11.875,2.596-15.908,7.149l-0.071,0.08l-0.012,0.014
	c-0.061,0.07-0.123,0.14-0.185,0.21c-0.025,0.028-0.057,0.064-0.081,0.093l-0.014,0.016l-0.081,0.093l-0.02,0.022l-0.045,0.051
	c-0.06,0.068-0.12,0.136-0.179,0.205c-0.088,0.1-0.178,0.203-0.266,0.304c-0.104,0.12-0.206,0.241-0.307,0.363
	c-0.111,0.122-0.22,0.245-0.329,0.371c-5.363,6.211-10.345,12.742-14.919,19.556l-0.004,0.006c-0.481,0.718-0.956,1.434-1.428,2.158
	l-0.003,0.004l-0.079,0.12l-0.007,0.011c-0.028,0.043-0.049,0.074-0.076,0.117l-0.006,0.009c-0.028,0.043-0.049,0.075-0.076,0.117
	l-0.007,0.011c-0.166,0.256-0.327,0.505-0.493,0.762l-0.005,0.009c-0.028,0.043-0.048,0.075-0.076,0.118l-0.007,0.012l-0.07,0.108
	l-0.016,0.025c-0.021,0.032-0.046,0.073-0.067,0.105l-0.012,0.019c-0.028,0.043-0.047,0.073-0.074,0.116l-0.005,0.008
	c-0.137,0.214-0.271,0.425-0.408,0.64l-0.003,0.005l-0.075,0.118l-0.011,0.018c-0.021,0.032-0.049,0.077-0.069,0.109l-0.011,0.018
	c-0.021,0.032-0.05,0.079-0.07,0.111l-0.01,0.017c-0.027,0.043-0.048,0.076-0.075,0.119l-0.003,0.004
	c-0.136,0.215-0.268,0.425-0.402,0.641l-0.01,0.015l-0.07,0.112l-0.011,0.017l-0.067,0.108l-0.014,0.023l-0.067,0.108l-0.011,0.018
	l-0.068,0.11l-0.012,0.018l-0.072,0.116l-0.007,0.01c-0.107,0.173-0.211,0.341-0.318,0.515l-0.006,0.01l-0.072,0.116l-0.012,0.021
	c-0.02,0.033-0.046,0.075-0.066,0.107l-0.013,0.021c-0.02,0.033-0.044,0.072-0.064,0.104l-0.017,0.027
	c-0.02,0.033-0.042,0.069-0.062,0.102l-0.015,0.024c-0.02,0.033-0.044,0.071-0.064,0.104l-0.015,0.025
	c-0.026,0.043-0.046,0.075-0.072,0.118l-0.004,0.006c-0.079,0.13-0.156,0.258-0.236,0.389l-0.007,0.011
	c-0.023,0.038-0.048,0.079-0.071,0.117l-0.011,0.019c-0.02,0.033-0.044,0.072-0.063,0.105l-0.02,0.033
	c-0.02,0.033-0.038,0.063-0.058,0.096l-0.018,0.03c-0.02,0.033-0.039,0.065-0.059,0.098l-0.017,0.029
	c-0.02,0.033-0.044,0.073-0.064,0.106l-0.012,0.02c-0.023,0.038-0.045,0.074-0.068,0.112l-0.009,0.015
	c-0.105,0.175-0.204,0.342-0.309,0.517l-0.011,0.018l-0.064,0.108L28.309,99.3l-0.06,0.1l-0.019,0.033l-0.057,0.095l-0.02,0.033
	l-0.055,0.093l-0.021,0.037c-0.02,0.033-0.043,0.072-0.062,0.105l-0.01,0.017l-0.072,0.122l-0.003,0.006
	c-0.078,0.132-0.153,0.26-0.23,0.392l-0.007,0.012c-0.02,0.033-0.047,0.079-0.066,0.112l-0.019,0.032l-0.056,0.095l-0.021,0.037
	c-0.02,0.033-0.032,0.055-0.051,0.088l-0.024,0.041c-0.02,0.033-0.035,0.059-0.053,0.092l-0.02,0.034
	c-0.016,0.028-0.037,0.063-0.053,0.091l-0.023,0.039l-0.055,0.096l-0.018,0.03c-0.022,0.039-0.045,0.077-0.067,0.116l-0.007,0.012
	c-0.051,0.088-0.098,0.169-0.149,0.258l-0.02,0.034c-0.016,0.028-0.038,0.065-0.053,0.093l-0.025,0.042l-0.048,0.084l-0.029,0.05
	l-0.043,0.076l-0.03,0.052c-0.013,0.022-0.032,0.055-0.044,0.077l-0.029,0.049l-0.048,0.085l-0.023,0.04
	c-0.016,0.028-0.035,0.061-0.051,0.089l-0.024,0.041l-0.06,0.105l-0.011,0.019c-0.05,0.089-0.099,0.174-0.149,0.263l-0.005,0.008
	c-0.022,0.039-0.044,0.077-0.066,0.116l-0.024,0.042c-0.016,0.028-0.033,0.058-0.049,0.086c-0.008,0.015-0.018,0.032-0.027,0.047
	l-0.045,0.08l-0.028,0.05l-0.046,0.081l-0.027,0.048l-0.043,0.076l-0.03,0.053l-0.045,0.08c-0.01,0.018-0.016,0.03-0.027,0.047
	l-0.049,0.088l-0.022,0.039l-0.053,0.094l-0.021,0.037l-0.068,0.123l-0.034,0.061l-0.038,0.068l-0.029,0.053
	c-0.013,0.022-0.03,0.054-0.043,0.076l-0.031,0.056l-0.04,0.071l-0.033,0.059l-0.038,0.069c-0.012,0.02-0.023,0.04-0.034,0.06
	l-0.04,0.071l-0.029,0.053c-0.015,0.028-0.027,0.049-0.042,0.077l-0.03,0.055l-0.041,0.073l-0.029,0.054l-0.04,0.072l-0.032,0.059
	l-0.069,0.125l-0.002,0.004l-0.068,0.123l-0.027,0.05c-0.015,0.028-0.027,0.05-0.043,0.078l-0.031,0.055l-0.039,0.072l-0.032,0.058
	l-0.039,0.072l-0.033,0.06l-0.035,0.064l-0.036,0.065l-0.035,0.064l-0.035,0.064l-0.034,0.062c-0.011,0.02-0.025,0.046-0.036,0.066
	l-0.035,0.063l-0.036,0.067l-0.038,0.07c-0.009,0.018-0.02,0.038-0.03,0.056l-0.068,0.126l-0.024,0.045
	c-0.016,0.028-0.031,0.058-0.046,0.086l-0.028,0.051l-0.041,0.077l-0.03,0.055l-0.04,0.074l-0.032,0.06
	c-0.012,0.023-0.024,0.044-0.036,0.067l-0.033,0.061c-0.012,0.022-0.025,0.046-0.036,0.068l-0.035,0.064
	c-0.008,0.017-0.025,0.048-0.034,0.064c-0.011,0.02-0.023,0.042-0.033,0.062c-0.012,0.023-0.027,0.05-0.039,0.073
	c-0.011,0.02-0.02,0.036-0.03,0.056l-0.046,0.086l-0.022,0.041l-0.063,0.118l-0.033,0.063c-0.012,0.023-0.029,0.054-0.041,0.077
	l-0.03,0.057c-0.012,0.023-0.025,0.047-0.037,0.069l-0.033,0.063c-0.012,0.023-0.024,0.045-0.036,0.067l-0.035,0.065
	c-0.012,0.023-0.02,0.038-0.032,0.06c-0.012,0.023-0.024,0.046-0.036,0.069l-0.033,0.063c-0.012,0.023-0.022,0.042-0.034,0.065
	l-0.035,0.065c-0.012,0.023-0.021,0.04-0.033,0.063c-0.012,0.023-0.024,0.047-0.036,0.069c-0.01,0.02-0.021,0.041-0.033,0.062
	l-0.031,0.059l-0.038,0.071l-0.021,0.041l-0.076,0.145l-0.035,0.066l-0.032,0.062l-0.035,0.066l-0.035,0.067l-0.032,0.062
	l-0.036,0.069c-0.008,0.017-0.023,0.045-0.032,0.062l-0.033,0.063l-0.036,0.069c-0.012,0.023-0.021,0.041-0.033,0.064
	c-0.012,0.023-0.021,0.041-0.033,0.064l-0.034,0.066l-0.031,0.06c-0.014,0.026-0.025,0.048-0.038,0.073l-0.029,0.056l-0.036,0.07
	l-0.032,0.061c-0.026,0.051-0.051,0.099-0.077,0.15l-0.022,0.043c-0.014,0.026-0.027,0.052-0.04,0.077l-0.025,0.05l-0.036,0.071
	c-0.012,0.023-0.021,0.041-0.033,0.064c-0.011,0.021-0.022,0.043-0.033,0.063c-0.009,0.017-0.024,0.047-0.033,0.064l-0.035,0.068
	l-0.033,0.064l-0.033,0.066l-0.032,0.062l-0.035,0.069c-0.009,0.017-0.024,0.046-0.033,0.064l-0.034,0.067l-0.033,0.064
	l-0.033,0.066l-0.035,0.068l-0.032,0.063l-0.026,0.052l-0.076,0.151l-0.025,0.051l-0.037,0.073l-0.029,0.058l-0.036,0.072
	l-0.029,0.06l-0.035,0.068l-0.031,0.062l-0.036,0.071l-0.029,0.058c-0.012,0.023-0.024,0.047-0.035,0.07
	c-0.009,0.017-0.022,0.044-0.031,0.061l-0.036,0.071l-0.029,0.059l-0.035,0.069l-0.03,0.06l-0.037,0.074l-0.016,0.032l-0.147,0.297
	l-0.027,0.054l-0.037,0.074c-0.011,0.023-0.015,0.031-0.027,0.054l-0.037,0.075l-0.029,0.058c-0.011,0.023-0.023,0.049-0.035,0.072
	l-0.029,0.058c-0.012,0.026-0.022,0.045-0.035,0.071l-0.032,0.065l-0.033,0.066c-0.008,0.017-0.022,0.045-0.03,0.062
	c-0.012,0.023-0.023,0.047-0.035,0.07c-0.012,0.023-0.02,0.04-0.031,0.063l-0.033,0.067l-0.036,0.075l-0.027,0.055
	c-0.022,0.046-0.04,0.081-0.062,0.127l-0.031,0.063l-0.033,0.068l-0.033,0.069l-0.031,0.064c-0.01,0.021-0.021,0.042-0.031,0.063
	l-0.035,0.071l-0.031,0.065c-0.011,0.023-0.02,0.041-0.031,0.064c-0.011,0.023-0.022,0.047-0.034,0.07
	c-0.008,0.017-0.02,0.041-0.028,0.058c-0.011,0.023-0.025,0.052-0.036,0.075c-0.008,0.017-0.02,0.041-0.028,0.058l-0.033,0.07
	l-0.031,0.064l-0.034,0.071c-0.008,0.017-0.018,0.037-0.026,0.055c-0.013,0.026-0.024,0.05-0.036,0.076l-0.023,0.049
	c-0.023,0.047-0.046,0.094-0.068,0.141c-0.008,0.017-0.025,0.051-0.033,0.068c-0.01,0.021-0.021,0.043-0.031,0.064l-0.032,0.066
	l-0.033,0.069l-0.031,0.064l-0.033,0.07l-0.029,0.06l-0.033,0.071l-0.031,0.065l-0.031,0.066l-0.031,0.065l-0.032,0.067
	l-0.033,0.068c-0.01,0.021-0.02,0.043-0.03,0.064c-0.01,0.023-0.023,0.048-0.033,0.072c-0.01,0.021-0.019,0.04-0.029,0.061
	l-0.042,0.089c-0.007,0.016-0.012,0.028-0.02,0.043c-0.021,0.046-0.039,0.083-0.061,0.13c-0.009,0.018-0.017,0.036-0.026,0.055
	c-0.01,0.023-0.025,0.054-0.036,0.078l-0.029,0.064c-0.011,0.023-0.021,0.044-0.031,0.067l-0.033,0.07l-0.029,0.063l-0.031,0.066
	c-0.01,0.023-0.02,0.044-0.031,0.068l-0.031,0.066l-0.032,0.069l-0.029,0.063c-0.011,0.023-0.021,0.044-0.031,0.068l-0.032,0.069
	l-0.028,0.06l-0.033,0.072c-0.008,0.017-0.021,0.045-0.029,0.063c-0.01,0.024-0.021,0.047-0.032,0.07l-0.059,0.128l-0.029,0.064
	c-0.011,0.023-0.02,0.043-0.031,0.066c-0.011,0.024-0.022,0.048-0.033,0.071l-0.03,0.064c-0.009,0.021-0.02,0.044-0.029,0.065
	c-0.01,0.023-0.021,0.046-0.032,0.069c-0.009,0.021-0.019,0.042-0.029,0.063c-0.011,0.023-0.022,0.048-0.033,0.071l-0.031,0.067
	l-0.028,0.061l-0.034,0.074l-0.027,0.059l-0.034,0.074l-0.025,0.056c-0.012,0.026-0.023,0.051-0.035,0.077
	c-0.008,0.018-0.014,0.032-0.023,0.05l-0.038,0.085l-0.004,0.009c-0.05,0.111-0.1,0.221-0.15,0.332l-0.022,0.049
	c-0.012,0.026-0.025,0.056-0.037,0.082l-0.021,0.049c-0.012,0.026-0.025,0.055-0.037,0.082l-0.023,0.052l-0.036,0.081l-0.023,0.053
	c-0.012,0.026-0.023,0.051-0.035,0.078l-0.025,0.055l-0.036,0.08l-0.022,0.05l-0.036,0.082l-0.022,0.05l-0.038,0.085l-0.02,0.045
	c-0.043,0.098-0.087,0.197-0.131,0.295l-0.023,0.052l-0.035,0.078l-0.023,0.054l-0.035,0.079l-0.025,0.055l-0.034,0.077
	l-0.024,0.055l-0.035,0.079l-0.024,0.054l-0.035,0.081c-0.008,0.018-0.014,0.031-0.021,0.049l-0.037,0.084l-0.022,0.052
	c-0.012,0.027-0.025,0.055-0.036,0.082l-0.019,0.042c-0.043,0.098-0.089,0.204-0.132,0.302l-0.021,0.048
	c-0.012,0.029-0.025,0.058-0.038,0.087l-0.02,0.044c-0.012,0.029-0.023,0.055-0.036,0.084l-0.021,0.051
	c-0.012,0.027-0.023,0.053-0.035,0.079l-0.025,0.057l-0.031,0.073c-0.01,0.024-0.017,0.038-0.027,0.062l-0.033,0.076l-0.025,0.058
	c-0.01,0.024-0.021,0.051-0.032,0.075c-0.01,0.024-0.014,0.033-0.024,0.057c-0.012,0.027-0.023,0.054-0.035,0.08L16.262,123
	l-0.037,0.087l-0.011,0.026c-0.048,0.112-0.096,0.226-0.144,0.338l-0.012,0.027l-0.038,0.089L16,123.615l-0.038,0.091l-0.016,0.038
	l-0.04,0.094l-0.018,0.042l-0.038,0.089l-0.019,0.046c-0.013,0.029-0.023,0.055-0.036,0.084c-0.008,0.018-0.016,0.037-0.023,0.055
	c-0.012,0.027-0.023,0.054-0.035,0.081l-0.02,0.046l-0.036,0.088l-0.018,0.042c-0.043,0.102-0.085,0.204-0.128,0.306l-0.02,0.047
	l-0.035,0.086l-0.021,0.049c-0.012,0.03-0.023,0.056-0.035,0.085l-0.021,0.05l-0.034,0.081c-0.007,0.018-0.014,0.036-0.022,0.053
	l-0.035,0.084l-0.021,0.051l-0.033,0.081l-0.023,0.054c-0.012,0.03-0.022,0.055-0.035,0.084l-0.02,0.047
	c-0.012,0.03-0.023,0.055-0.035,0.085l-0.021,0.052c-0.06,0.145-0.118,0.289-0.178,0.434l-0.02,0.048l-0.033,0.08l-0.021,0.054
	l-0.033,0.08l-0.023,0.058l-0.031,0.077l-0.024,0.058l-0.03,0.074l-0.027,0.068l-0.027,0.069l-0.026,0.064l-0.03,0.074l-0.024,0.06
	l-0.031,0.077l-0.019,0.046c-0.042,0.105-0.083,0.208-0.126,0.313l-0.015,0.038c-0.011,0.027-0.024,0.061-0.035,0.088l-0.02,0.049
	l-0.032,0.079l-0.023,0.058c-0.011,0.027-0.022,0.054-0.033,0.081l-0.021,0.052c-0.01,0.027-0.021,0.055-0.033,0.082l-0.021,0.054
	c-0.01,0.027-0.022,0.057-0.033,0.084l-0.019,0.049l-0.035,0.087l-0.017,0.042c-0.013,0.032-0.025,0.064-0.038,0.096l-0.007,0.016
	c-0.043,0.108-0.086,0.218-0.129,0.327l-0.021,0.055c-0.01,0.024-0.021,0.053-0.031,0.078l-0.022,0.057
	c-0.01,0.027-0.02,0.052-0.031,0.079c-0.007,0.018-0.016,0.041-0.023,0.059c-0.011,0.027-0.02,0.051-0.031,0.078l-0.022,0.057
	c-0.009,0.024-0.021,0.055-0.031,0.079l-0.023,0.059l-0.031,0.078l-0.021,0.055c-0.01,0.027-0.021,0.055-0.032,0.082
	c-0.007,0.018-0.014,0.038-0.021,0.056l-0.031,0.08l-0.024,0.061l-0.028,0.074l-0.031,0.079c-0.018,0.046-0.034,0.088-0.051,0.134
	c-0.007,0.018-0.014,0.036-0.021,0.054l-0.03,0.077c-0.007,0.018-0.016,0.044-0.023,0.062c-0.009,0.024-0.016,0.043-0.026,0.067
	l-0.027,0.072l-0.026,0.069c-0.007,0.018-0.019,0.049-0.025,0.067c-0.01,0.025-0.019,0.049-0.028,0.073l-0.023,0.062l-0.03,0.078
	l-0.023,0.063l-0.027,0.07l-0.028,0.074l-0.025,0.065l-0.027,0.073l-0.025,0.065l-0.025,0.068l-0.045,0.119l-0.032,0.085
	l-0.025,0.068l-0.025,0.067l-0.029,0.078c-0.009,0.024-0.014,0.036-0.022,0.06c-0.01,0.025-0.021,0.055-0.03,0.08l-0.021,0.055
	l-0.03,0.08c-0.007,0.018-0.016,0.043-0.023,0.062c-0.01,0.027-0.018,0.048-0.028,0.075l-0.023,0.061l-0.029,0.077
	c-0.007,0.018-0.016,0.043-0.023,0.061l-0.029,0.077c-0.008,0.024-0.012,0.033-0.021,0.057c-0.01,0.027-0.02,0.053-0.03,0.081
	c-0.007,0.018-0.013,0.036-0.02,0.054c-0.01,0.027-0.021,0.057-0.031,0.084l-0.005,0.014l-0.077,0.212l-0.015,0.04l-0.031,0.085
	l-0.019,0.053l-0.032,0.086c-0.004,0.012-0.014,0.039-0.019,0.052l-0.03,0.083l-0.02,0.055c-0.01,0.027-0.02,0.054-0.03,0.082
	c-0.008,0.024-0.012,0.033-0.021,0.057l-0.029,0.078l-0.021,0.06l-0.029,0.081l-0.02,0.055l-0.029,0.081l-0.021,0.058l-0.029,0.082
	l-0.018,0.05c-0.036,0.102-0.075,0.208-0.111,0.309l-0.016,0.046l-0.031,0.085l-0.019,0.054l-0.029,0.08l-0.021,0.061l-0.028,0.078
	l-0.021,0.058l-0.028,0.08l-0.023,0.063c-0.008,0.025-0.017,0.049-0.026,0.073c-0.007,0.018-0.018,0.049-0.023,0.067l-0.025,0.071
	c-0.009,0.024-0.016,0.044-0.024,0.068l-0.026,0.073c-0.006,0.018-0.012,0.035-0.019,0.053c-0.034,0.096-0.068,0.196-0.102,0.292
	l-0.023,0.065l-0.025,0.073l-0.023,0.065l-0.027,0.077l-0.021,0.061l-0.027,0.077l-0.023,0.066
	c-0.009,0.025-0.016,0.044-0.024,0.069l-0.025,0.072c-0.007,0.022-0.016,0.048-0.024,0.07l-0.023,0.067l-0.025,0.072l-0.022,0.062
	c-0.009,0.028-0.018,0.053-0.027,0.081l-0.019,0.054c-0.01,0.028-0.019,0.054-0.028,0.082c-0.007,0.018-0.017,0.048-0.023,0.066
	l-0.049,0.143l-0.022,0.064l-0.025,0.075l-0.022,0.064l-0.025,0.075l-0.023,0.067l-0.025,0.074
	c-0.006,0.018-0.015,0.045-0.021,0.063l-0.026,0.078l-0.021,0.062l-0.027,0.079l-0.019,0.057c-0.01,0.028-0.019,0.056-0.029,0.084
	l-0.02,0.059c-0.01,0.028-0.018,0.051-0.027,0.079l-0.02,0.06l-0.027,0.081l-0.016,0.049l-0.058,0.172l-0.017,0.051
	c-0.01,0.028-0.018,0.052-0.027,0.079c-0.007,0.018-0.014,0.041-0.02,0.059l-0.026,0.077l-0.021,0.066l-0.024,0.071l-0.023,0.071
	l-0.023,0.068c-0.008,0.025-0.016,0.046-0.023,0.071l-0.024,0.073c-0.008,0.025-0.014,0.043-0.022,0.067
	c-0.008,0.022-0.017,0.049-0.024,0.072l-0.023,0.071l-0.023,0.07c-0.008,0.025-0.018,0.052-0.025,0.077l-0.02,0.061
	c-0.008,0.025-0.02,0.059-0.027,0.083l-0.02,0.06c-0.014,0.043-0.025,0.079-0.04,0.122l-0.025,0.077
	c-0.008,0.025-0.016,0.051-0.025,0.075l-0.023,0.071l-0.023,0.071c-0.008,0.025-0.016,0.05-0.024,0.075l-0.02,0.063
	c-0.009,0.028-0.017,0.05-0.025,0.078c-0.007,0.019-0.015,0.046-0.021,0.064l-0.023,0.074c-0.008,0.025-0.014,0.043-0.022,0.068
	c-0.008,0.025-0.015,0.046-0.023,0.071l-0.023,0.072c-0.008,0.025-0.015,0.047-0.023,0.072l-0.02,0.061l-0.026,0.08l-0.02,0.062
	c-0.009,0.028-0.016,0.05-0.025,0.078c-0.007,0.019-0.016,0.051-0.022,0.069c-0.014,0.045-0.029,0.088-0.042,0.132
	c-0.008,0.025-0.016,0.048-0.023,0.073l-0.025,0.077l-0.02,0.064l-0.024,0.076l-0.021,0.068l-0.021,0.066l-0.024,0.076
	c-0.008,0.025-0.015,0.045-0.023,0.071l-0.021,0.067l-0.024,0.075l-0.021,0.066l-0.025,0.078l-0.02,0.063
	c-0.008,0.025-0.016,0.05-0.024,0.076l-0.02,0.066l-0.025,0.079l-0.014,0.046c-0.033,0.104-0.066,0.211-0.098,0.315l-0.017,0.054
	l-0.024,0.079l-0.019,0.061l-0.023,0.076l-0.021,0.068l-0.023,0.075l-0.02,0.064c-0.007,0.025-0.015,0.051-0.023,0.076l-0.022,0.071
	c-0.007,0.022-0.014,0.047-0.021,0.07c-0.005,0.019-0.016,0.054-0.022,0.073l-0.021,0.069l-0.023,0.076l-0.02,0.068l-0.023,0.076
	l-0.02,0.066c-0.014,0.043-0.027,0.088-0.04,0.132c-0.005,0.017-0.01,0.034-0.015,0.051c-0.01,0.031-0.02,0.067-0.03,0.098
	l-0.021,0.07c-0.008,0.025-0.014,0.047-0.021,0.072l-0.021,0.07l-0.021,0.073l-0.023,0.074c-0.005,0.019-0.014,0.048-0.02,0.066
	l-0.023,0.077c-0.007,0.025-0.011,0.039-0.019,0.064l-0.024,0.08l-0.018,0.062c-0.008,0.025-0.016,0.052-0.023,0.077l-0.02,0.066
	c-0.008,0.028-0.015,0.051-0.023,0.079c-0.005,0.019-0.012,0.04-0.018,0.059c-0.007,0.025-0.016,0.056-0.024,0.081
	c-0.005,0.019-0.014,0.05-0.02,0.068c-0.012,0.039-0.021,0.074-0.033,0.114l-0.029,0.098l-0.018,0.063
	c-0.008,0.025-0.016,0.052-0.023,0.077c-0.008,0.025-0.014,0.047-0.021,0.073l-0.021,0.072c-0.007,0.023-0.014,0.046-0.02,0.068
	l-0.022,0.075l-0.02,0.066l-0.023,0.079l-0.02,0.066l-0.021,0.071l-0.021,0.074l-0.02,0.07l-0.021,0.071l-0.022,0.076L7.945,146.3
	l-0.024,0.085l-0.018,0.06c-0.01,0.038-0.02,0.069-0.031,0.106l-0.029,0.099l-0.021,0.076l-0.018,0.063l-0.023,0.082l-0.018,0.065
	l-0.022,0.078l-0.02,0.068L7.7,147.154l-0.021,0.073l-0.02,0.071l-0.02,0.07c-0.007,0.025-0.015,0.052-0.021,0.077l-0.019,0.066
	l-0.023,0.082c-0.005,0.02-0.011,0.04-0.017,0.06c-0.008,0.031-0.016,0.06-0.025,0.091l-0.015,0.054
	c-0.028,0.1-0.052,0.185-0.08,0.285c-0.005,0.017-0.009,0.035-0.014,0.052l-0.025,0.093L7.38,148.29
	c-0.007,0.025-0.014,0.051-0.021,0.076l-0.02,0.071c-0.009,0.031-0.012,0.045-0.021,0.077c-0.005,0.02-0.012,0.045-0.018,0.065
	c-0.007,0.025-0.014,0.052-0.021,0.077l-0.019,0.068c-0.007,0.025-0.014,0.053-0.021,0.078l-0.018,0.066
	c-0.007,0.025-0.014,0.054-0.021,0.079c-0.007,0.023-0.012,0.042-0.018,0.065l-0.023,0.085l-0.016,0.06
	c-0.007,0.025-0.016,0.058-0.023,0.083l-0.026,0.095c-0.01,0.038-0.018,0.066-0.028,0.104l-0.02,0.073l-0.019,0.07
	c-0.007,0.026-0.014,0.053-0.021,0.078c-0.007,0.025-0.011,0.04-0.018,0.065l-0.021,0.076c-0.005,0.019-0.014,0.05-0.018,0.069
	l-0.02,0.073l-0.02,0.074c-0.006,0.023-0.012,0.045-0.018,0.067l-0.021,0.079c-0.006,0.023-0.012,0.045-0.018,0.067l-0.02,0.077
	l-0.018,0.067l-0.021,0.08l-0.018,0.066c-0.007,0.025-0.016,0.062-0.023,0.087c-0.004,0.017-0.01,0.038-0.014,0.056l-0.022,0.083
	c-0.012,0.046-0.024,0.092-0.036,0.138c-0.005,0.019-0.012,0.044-0.016,0.063c-0.007,0.023-0.014,0.051-0.02,0.073l-0.019,0.071
	c-0.006,0.023-0.012,0.046-0.018,0.069l-0.02,0.078l-0.018,0.069l-0.02,0.074c-0.007,0.026-0.012,0.046-0.019,0.072l-0.019,0.075
	c-0.007,0.026-0.012,0.044-0.018,0.07l-0.02,0.074l-0.018,0.071l-0.02,0.074l-0.018,0.071l-0.018,0.068
	c-0.007,0.029-0.012,0.05-0.02,0.078c-0.005,0.019-0.012,0.048-0.017,0.067l-0.029,0.114l-0.026,0.102l-0.015,0.057
	c-0.006,0.025-0.016,0.063-0.022,0.088c-0.005,0.02-0.012,0.045-0.016,0.065l-0.02,0.078l-0.018,0.072l-0.018,0.073l-0.018,0.071
	l-0.019,0.075l-0.018,0.073l-0.018,0.072l-0.018,0.072c-0.006,0.025-0.012,0.049-0.018,0.074l-0.018,0.071
	c-0.006,0.025-0.014,0.057-0.02,0.082c-0.005,0.02-0.01,0.04-0.015,0.06c-0.008,0.032-0.017,0.066-0.025,0.097
	c-0.004,0.017-0.008,0.032-0.012,0.049l-0.035,0.141l-0.016,0.063c-0.006,0.025-0.014,0.056-0.02,0.081l-0.017,0.068
	c-0.007,0.025-0.014,0.054-0.02,0.079l-0.017,0.068l-0.018,0.076l-0.018,0.073l-0.018,0.071L5.8,154.341
	c-0.006,0.025-0.011,0.046-0.018,0.072c-0.006,0.026-0.011,0.045-0.017,0.071c-0.007,0.025-0.014,0.057-0.02,0.082
	c-0.005,0.02-0.01,0.041-0.015,0.061l-0.021,0.086c-0.005,0.02-0.01,0.041-0.015,0.062l-0.022,0.091L5.66,154.92
	c-0.012,0.051-0.023,0.093-0.035,0.144l-0.006,0.022c-0.01,0.045-0.019,0.08-0.03,0.125l-0.011,0.045
	c-0.007,0.032-0.016,0.067-0.023,0.099c-0.005,0.02-0.009,0.039-0.014,0.059c-0.007,0.032-0.013,0.057-0.021,0.089
	c-0.005,0.02-0.009,0.039-0.014,0.059c-0.006,0.025-0.014,0.059-0.02,0.085l-0.016,0.068c-0.007,0.025-0.012,0.052-0.018,0.077
	c-0.006,0.023-0.011,0.046-0.016,0.069c-0.007,0.025-0.013,0.053-0.019,0.078L5.4,156.006c-0.008,0.032-0.013,0.056-0.021,0.087
	l-0.013,0.056c-0.007,0.032-0.014,0.059-0.021,0.091l-0.014,0.059c-0.007,0.032-0.017,0.073-0.025,0.105l-0.009,0.039l-0.033,0.144
	c-0.003,0.014-0.008,0.034-0.012,0.048l-0.023,0.101c-0.005,0.017-0.008,0.037-0.013,0.054l-0.02,0.089l-0.016,0.068l-0.018,0.079
	l-0.016,0.068L5.13,157.17l-0.016,0.071l-0.018,0.079l-0.015,0.067l-0.018,0.08l-0.015,0.066l-0.021,0.091l-0.012,0.053
	l-0.024,0.107l-0.009,0.04c-0.012,0.051-0.021,0.096-0.033,0.147l-0.007,0.032l-0.025,0.112L4.9,158.181l-0.018,0.082l-0.014,0.063
	l-0.019,0.085l-0.014,0.064c-0.006,0.026-0.013,0.058-0.018,0.083l-0.014,0.063c-0.005,0.026-0.012,0.058-0.018,0.084l-0.015,0.067
	c-0.005,0.026-0.012,0.057-0.018,0.083l-0.013,0.06l-0.02,0.092l-0.013,0.058c-0.007,0.032-0.013,0.059-0.02,0.091l-0.012,0.056
	l-0.02,0.092c-0.008,0.035-0.015,0.068-0.022,0.102l-0.021,0.098c-0.004,0.017-0.008,0.038-0.012,0.056
	c-0.006,0.026-0.014,0.064-0.02,0.089l-0.014,0.066l-0.018,0.083l-0.014,0.065c-0.006,0.026-0.012,0.055-0.018,0.08
	c-0.005,0.023-0.009,0.044-0.014,0.067l-0.018,0.084l-0.014,0.063c-0.005,0.026-0.012,0.056-0.018,0.082l-0.014,0.067l-0.017,0.081
	c-0.005,0.023-0.01,0.044-0.014,0.067c-0.005,0.026-0.011,0.053-0.017,0.079l-0.014,0.07c-0.006,0.026-0.011,0.052-0.016,0.077
	c-0.008,0.035-0.014,0.069-0.022,0.103c-0.008,0.039-0.014,0.07-0.023,0.109L4.3,160.953l-0.018,0.087l-0.013,0.064
	c-0.006,0.026-0.012,0.059-0.018,0.085l-0.015,0.07l-0.016,0.076l-0.014,0.071c-0.006,0.026-0.01,0.05-0.016,0.076l-0.015,0.075
	c-0.005,0.026-0.009,0.045-0.015,0.071c-0.005,0.026-0.01,0.05-0.016,0.076l-0.014,0.068l-0.017,0.082l-0.013,0.065
	c-0.006,0.026-0.011,0.052-0.016,0.079l-0.016,0.076l-0.014,0.073c-0.01,0.052-0.019,0.091-0.029,0.142l-0.01,0.054l-0.019,0.091
	l-0.014,0.069l-0.016,0.082l-0.013,0.065c-0.007,0.032-0.01,0.051-0.016,0.083c-0.005,0.02-0.01,0.046-0.014,0.066l-0.016,0.082
	l-0.014,0.069l-0.015,0.075l-0.015,0.074c-0.005,0.026-0.01,0.05-0.015,0.076l-0.014,0.07l-0.016,0.083l-0.012,0.064
	c-0.007,0.032-0.012,0.061-0.018,0.094c-0.004,0.018-0.008,0.038-0.011,0.055c-0.008,0.039-0.012,0.063-0.02,0.102l-0.014,0.073
	l-0.023,0.118l-0.01,0.055c-0.007,0.032-0.012,0.062-0.018,0.095l-0.012,0.059c-0.006,0.032-0.01,0.056-0.017,0.088l-0.012,0.064
	c-0.006,0.032-0.01,0.051-0.016,0.083c-0.004,0.023-0.008,0.045-0.013,0.069c-0.005,0.026-0.01,0.056-0.016,0.081
	c-0.004,0.023-0.007,0.04-0.012,0.064l-0.017,0.087l-0.012,0.063c-0.007,0.032-0.011,0.055-0.017,0.088l-0.011,0.059
	c-0.006,0.032-0.012,0.061-0.018,0.093l-0.011,0.058l-0.024,0.13l-0.003,0.015c-0.009,0.052-0.018,0.099-0.028,0.151l-0.006,0.031
	l-0.022,0.119l-0.008,0.046l-0.019,0.103l-0.01,0.051l-0.018,0.1l-0.01,0.052l-0.018,0.095c-0.004,0.021-0.007,0.037-0.01,0.058
	c-0.005,0.026-0.012,0.067-0.017,0.093l-0.011,0.058l-0.016,0.09l-0.011,0.061l-0.017,0.094l-0.01,0.055l-0.019,0.105l-0.008,0.044
	c-0.009,0.052-0.017,0.097-0.027,0.149l-0.003,0.016c-0.008,0.045-0.016,0.087-0.024,0.132c-0.003,0.018-0.007,0.039-0.01,0.057
	l-0.016,0.091c-0.004,0.021-0.008,0.042-0.011,0.063l-0.016,0.088l-0.011,0.062l-0.016,0.088c-0.003,0.021-0.007,0.042-0.011,0.063
	l-0.015,0.087l-0.012,0.065l-0.015,0.088l-0.01,0.058l-0.017,0.097c-0.003,0.018-0.007,0.036-0.009,0.054
	c-0.006,0.032-0.014,0.076-0.019,0.109l-0.007,0.039l-0.021,0.125l-0.005,0.028l-0.026,0.15l-0.005,0.033
	c-0.006,0.033-0.014,0.082-0.02,0.115l-0.01,0.055c-0.005,0.033-0.01,0.064-0.016,0.096l-0.01,0.057
	c-0.005,0.033-0.01,0.058-0.016,0.091l-0.01,0.062c-0.004,0.026-0.01,0.063-0.015,0.089c-0.003,0.021-0.007,0.042-0.01,0.062
	c-0.004,0.026-0.01,0.061-0.014,0.087l-0.01,0.063c-0.006,0.033-0.01,0.056-0.015,0.089l-0.01,0.063l-0.014,0.082l-0.012,0.07
	l-0.014,0.086l-0.01,0.062c-0.009,0.052-0.016,0.095-0.025,0.147l-0.006,0.037l-0.018,0.112l-0.01,0.058
	c-0.005,0.033-0.009,0.059-0.015,0.091l-0.01,0.063l-0.015,0.091c-0.003,0.021-0.005,0.035-0.009,0.056l-0.015,0.096
	c-0.003,0.021-0.006,0.037-0.01,0.057c-0.004,0.026-0.01,0.068-0.015,0.094l-0.009,0.057l-0.014,0.09l-0.01,0.065
	c-0.005,0.033-0.009,0.057-0.014,0.09l-0.01,0.058c-0.005,0.033-0.011,0.073-0.016,0.105l-0.007,0.045
	c-0.016,0.105-0.031,0.195-0.047,0.299c-0.003,0.018-0.005,0.035-0.008,0.052c-0.005,0.033-0.01,0.066-0.015,0.099l-0.01,0.059
	c-0.005,0.033-0.008,0.056-0.014,0.089l-0.01,0.068l-0.012,0.081l-0.011,0.073l-0.012,0.075l-0.011,0.075
	c-0.005,0.026-0.008,0.053-0.012,0.079c-0.003,0.024-0.007,0.046-0.01,0.07c-0.005,0.033-0.008,0.051-0.012,0.083l-0.01,0.066
	c-0.005,0.033-0.01,0.064-0.014,0.096l-0.008,0.052c-0.007,0.046-0.012,0.076-0.018,0.122l-0.005,0.028l-0.023,0.152l-0.004,0.026
	l-0.018,0.123c-0.003,0.021-0.005,0.038-0.008,0.058c-0.005,0.033-0.008,0.059-0.014,0.092c-0.003,0.021-0.006,0.042-0.009,0.063
	l-0.012,0.086c-0.004,0.024-0.007,0.045-0.01,0.069l-0.012,0.082c-0.004,0.024-0.007,0.044-0.01,0.068l-0.012,0.083l-0.01,0.069
	c-0.005,0.033-0.008,0.056-0.013,0.089l-0.008,0.058l-0.014,0.095c-0.003,0.021-0.005,0.038-0.008,0.059l-0.014,0.1
	c-0.002,0.015-0.005,0.034-0.007,0.049c-0.007,0.053-0.014,0.097-0.021,0.149l-0.005,0.036c-0.005,0.039-0.011,0.077-0.016,0.117
	l-0.008,0.054l-0.013,0.095c-0.003,0.021-0.007,0.045-0.009,0.066l-0.012,0.087l-0.008,0.062l-0.012,0.09
	c-0.003,0.021-0.006,0.039-0.008,0.059l-0.014,0.097c-0.002,0.018-0.005,0.037-0.007,0.054l-0.013,0.094
	c-0.003,0.021-0.005,0.04-0.008,0.061l-0.013,0.095c-0.002,0.018-0.005,0.037-0.007,0.055l-0.015,0.108
	c-0.002,0.015-0.003,0.028-0.006,0.042l-0.018,0.135l-0.003,0.018l-0.02,0.149l-0.007,0.056l-0.013,0.096l-0.008,0.058
	c-0.004,0.033-0.008,0.061-0.012,0.094l-0.008,0.064c-0.004,0.033-0.007,0.054-0.011,0.087c-0.003,0.024-0.006,0.042-0.008,0.065
	c-0.004,0.026-0.008,0.06-0.012,0.086l-0.008,0.067c-0.004,0.026-0.008,0.06-0.011,0.086c-0.003,0.021-0.006,0.043-0.008,0.063
	c-0.005,0.033-0.007,0.056-0.012,0.089c-0.003,0.021-0.005,0.043-0.008,0.064l-0.011,0.09l-0.008,0.061
	c-0.005,0.033-0.009,0.07-0.013,0.103l-0.007,0.049l-0.019,0.152l-0.003,0.02c-0.005,0.04-0.012,0.09-0.016,0.13l-0.007,0.054
	c-0.004,0.033-0.008,0.065-0.012,0.098l-0.007,0.061c-0.005,0.033-0.007,0.056-0.011,0.089l-0.008,0.065l-0.011,0.089l-0.008,0.064
	l-0.01,0.087l-0.008,0.065c-0.005,0.033-0.007,0.056-0.011,0.089L1.49,177.99c-0.004,0.033-0.007,0.056-0.011,0.089
	c-0.002,0.021-0.005,0.041-0.007,0.062l-0.013,0.106l-0.005,0.045c-0.012,0.106-0.023,0.198-0.036,0.304l-0.005,0.045l-0.012,0.108
	c-0.003,0.018-0.005,0.038-0.007,0.056L1.381,178.9l-0.007,0.059l-0.011,0.094l-0.007,0.061c-0.003,0.026-0.008,0.067-0.01,0.094
	c-0.003,0.018-0.005,0.039-0.007,0.057c-0.004,0.033-0.008,0.063-0.011,0.096c-0.003,0.021-0.005,0.041-0.007,0.062
	c-0.004,0.033-0.007,0.059-0.01,0.092l-0.007,0.058c-0.003,0.033-0.008,0.07-0.012,0.104l-0.005,0.049l-0.034,0.305l-0.005,0.041
	c-0.004,0.033-0.009,0.079-0.012,0.112l-0.007,0.054c-0.003,0.033-0.007,0.065-0.01,0.098l-0.007,0.059l-0.01,0.093l-0.007,0.067
	l-0.008,0.081l-0.008,0.073c-0.003,0.027-0.006,0.055-0.009,0.081l-0.008,0.071l-0.008,0.085l-0.007,0.066
	c-0.004,0.033-0.007,0.059-0.01,0.092c-0.003,0.021-0.005,0.041-0.007,0.062c-0.003,0.027-0.007,0.064-0.01,0.09
	c-0.002,0.021-0.004,0.042-0.007,0.063c-0.005,0.053-0.01,0.095-0.016,0.148l-0.005,0.043l-0.011,0.11l-0.006,0.06
	c-0.004,0.033-0.007,0.058-0.01,0.091c-0.002,0.021-0.005,0.047-0.007,0.068c-0.003,0.033-0.005,0.051-0.008,0.084
	c-0.002,0.024-0.005,0.049-0.007,0.073l-0.008,0.079c-0.003,0.024-0.005,0.047-0.007,0.071c-0.003,0.027-0.006,0.056-0.008,0.083
	L1.013,182.3l-0.008,0.082l-0.007,0.068l-0.009,0.089l-0.006,0.064l-0.01,0.103l-0.005,0.048l-0.03,0.308l-0.004,0.045l-0.01,0.106
	c-0.001,0.018-0.004,0.044-0.006,0.062c-0.003,0.033-0.006,0.06-0.008,0.093l-0.006,0.061c-0.003,0.033-0.006,0.058-0.008,0.092
	c-0.003,0.021-0.004,0.042-0.007,0.063c-0.002,0.027-0.006,0.065-0.008,0.092l-0.006,0.063c-0.003,0.033-0.005,0.06-0.008,0.093
	l-0.005,0.058c-0.003,0.033-0.006,0.067-0.009,0.1l-0.005,0.055c-0.003,0.033-0.007,0.07-0.009,0.104l-0.005,0.049
	c-0.005,0.047-0.007,0.08-0.012,0.127l-0.002,0.026c-0.005,0.053-0.009,0.101-0.014,0.154l-0.003,0.034
	c-0.003,0.033-0.008,0.086-0.01,0.119l-0.005,0.054c-0.003,0.033-0.006,0.066-0.008,0.099l-0.005,0.06
	c-0.003,0.033-0.005,0.059-0.008,0.093l-0.006,0.062c-0.002,0.027-0.005,0.066-0.008,0.092l-0.005,0.065l-0.008,0.086l-0.005,0.067
	c-0.003,0.033-0.005,0.054-0.008,0.088c-0.002,0.024-0.003,0.043-0.006,0.067l-0.007,0.09l-0.005,0.062
	c-0.002,0.027-0.006,0.067-0.008,0.094L0.694,185.8c-0.005,0.053-0.008,0.097-0.012,0.151l-0.001,0.016l-0.011,0.136l-0.004,0.052
	l-0.008,0.105l-0.005,0.055l-0.008,0.096c-0.001,0.021-0.003,0.042-0.005,0.064c-0.003,0.034-0.004,0.057-0.007,0.091l-0.005,0.066
	c-0.003,0.027-0.005,0.06-0.007,0.087c-0.001,0.021-0.003,0.046-0.005,0.067l-0.007,0.086c-0.002,0.021-0.004,0.049-0.005,0.07
	c-0.003,0.027-0.005,0.054-0.007,0.08c-0.002,0.024-0.004,0.048-0.005,0.073l-0.008,0.096l-0.004,0.056
	c-0.003,0.047-0.007,0.092-0.01,0.139l-0.001,0.014l-0.011,0.155l-0.003,0.044c-0.003,0.034-0.006,0.075-0.008,0.109l-0.005,0.061
	l-0.007,0.093l-0.005,0.062c-0.002,0.034-0.004,0.058-0.007,0.092l-0.005,0.066l-0.006,0.088l-0.005,0.068l-0.006,0.084
	c-0.001,0.024-0.003,0.048-0.005,0.073c-0.002,0.034-0.003,0.054-0.006,0.087l-0.004,0.061c-0.003,0.034-0.005,0.068-0.007,0.102
	l-0.004,0.054c-0.002,0.034-0.005,0.08-0.008,0.114l-0.003,0.04c-0.003,0.054-0.007,0.098-0.01,0.152
	c-0.001,0.018-0.003,0.031-0.003,0.049c-0.003,0.04-0.005,0.067-0.007,0.107c-0.002,0.021-0.003,0.038-0.004,0.059
	c-0.003,0.034-0.004,0.057-0.006,0.091l-0.005,0.075l-0.005,0.079l-0.005,0.076l-0.005,0.078l-0.005,0.075
	c-0.002,0.027-0.004,0.056-0.005,0.083l-0.005,0.069l-0.005,0.085c-0.001,0.024-0.003,0.046-0.005,0.07l-0.005,0.09l-0.004,0.062
	l-0.006,0.098c-0.001,0.018-0.003,0.039-0.003,0.057c-0.003,0.047-0.006,0.093-0.008,0.14l-0.003,0.036l-0.007,0.13l-0.004,0.062
	l-0.005,0.093l-0.004,0.064l-0.005,0.09l-0.004,0.071l-0.005,0.083l-0.004,0.07c-0.002,0.027-0.003,0.059-0.005,0.085
	c-0.001,0.021-0.003,0.048-0.004,0.069l-0.005,0.088l-0.004,0.066c-0.001,0.027-0.003,0.06-0.005,0.087l-0.004,0.071l-0.005,0.088
	l-0.003,0.065l-0.006,0.108c-0.001,0.015-0.001,0.031-0.003,0.047c-0.003,0.054-0.005,0.099-0.008,0.153l-0.003,0.052
	c-0.002,0.034-0.003,0.067-0.005,0.101l-0.003,0.071l-0.005,0.084l-0.003,0.071l-0.005,0.083c-0.001,0.024-0.002,0.046-0.003,0.071
	l-0.004,0.088c-0.001,0.024-0.003,0.042-0.003,0.066l-0.005,0.087l-0.003,0.068c-0.001,0.034-0.003,0.06-0.005,0.094l-0.003,0.059
	l-0.005,0.106l-0.003,0.048l-0.005,0.124l-0.002,0.032c-0.002,0.054-0.005,0.103-0.007,0.157l-0.001,0.014
	c-0.003,0.047-0.005,0.093-0.007,0.141l-0.002,0.048l-0.005,0.107c-0.001,0.021-0.002,0.037-0.003,0.059l-0.004,0.097
	c-0.001,0.021-0.002,0.041-0.003,0.063c-0.001,0.027-0.003,0.064-0.004,0.091c-0.001,0.021-0.002,0.046-0.003,0.067l-0.004,0.091
	c-0.001,0.021-0.002,0.04-0.003,0.061l-0.004,0.097l-0.003,0.06l-0.003,0.096c-0.001,0.018-0.002,0.042-0.003,0.06l-0.004,0.097
	l-0.002,0.06c-0.005,0.108-0.008,0.2-0.012,0.308l-0.002,0.05l-0.004,0.106l-0.002,0.061l-0.003,0.094l-0.002,0.062
	c-0.001,0.034-0.003,0.064-0.003,0.098l-0.002,0.057c-0.001,0.027-0.003,0.069-0.003,0.097l-0.003,0.063
	c-0.001,0.034-0.002,0.059-0.003,0.093c-0.001,0.021-0.001,0.043-0.003,0.065c-0.001,0.034-0.001,0.055-0.003,0.089l-0.002,0.068
	l-0.003,0.094l-0.002,0.06c-0.001,0.034-0.002,0.079-0.003,0.113l-0.001,0.043c-0.001,0.054-0.003,0.1-0.005,0.154l-0.001,0.047
	c-0.001,0.034-0.002,0.075-0.003,0.109l-0.002,0.064c-0.001,0.027-0.001,0.064-0.003,0.091c0,0.021-0.001,0.046-0.001,0.067
	c-0.001,0.034-0.002,0.056-0.003,0.09l-0.002,0.066c-0.001,0.027-0.001,0.063-0.003,0.09l-0.001,0.068l-0.003,0.087
	c-0.001,0.025-0.001,0.045-0.001,0.07c-0.001,0.034-0.002,0.054-0.003,0.088c-0.001,0.021-0.001,0.045-0.001,0.066
	c-0.001,0.034-0.002,0.061-0.003,0.095l-0.001,0.061c-0.001,0.041-0.002,0.079-0.003,0.119l-0.001,0.033
	c-0.001,0.054-0.002,0.104-0.003,0.159v0.006c-0.001,0.054-0.003,0.096-0.003,0.151l-0.001,0.046l-0.002,0.107
	c-0.001,0.021-0.001,0.041-0.001,0.062l-0.002,0.095c-0.001,0.021-0.001,0.044-0.001,0.066l-0.002,0.089
	c0,0.021-0.001,0.047-0.001,0.068c-0.001,0.027-0.001,0.063-0.001,0.09c-0.001,0.022-0.001,0.046-0.001,0.067l-0.002,0.089
	l-0.001,0.066l-0.002,0.096l-0.001,0.06c0,0.034-0.001,0.063-0.001,0.097c-0.001,0.021-0.001,0.039-0.001,0.06l-0.002,0.108
	l-0.001,0.048c-0.001,0.054-0.001,0.099-0.003,0.154c0,0.015,0,0.036-0.001,0.051c0,0.034-0.001,0.071-0.001,0.105l-0.001,0.064
	l-0.001,0.091c-0.001,0.025-0.001,0.045-0.001,0.069l-0.001,0.089c-0.001,0.025-0.001,0.041-0.001,0.065
	c-0.001,0.027-0.001,0.065-0.001,0.092l-0.001,0.067c-0.001,0.027-0.001,0.061-0.001,0.088c0,0.025,0,0.043-0.001,0.068
	c0,0.034,0,0.055-0.001,0.09l-0.001,0.068c0,0.034-0.001,0.06-0.001,0.094c-0.001,0.022-0.001,0.04-0.001,0.061
	c-0.001,0.034-0.001,0.069-0.001,0.103c-0.001,0.018-0.001,0.037-0.001,0.055c-0.001,0.055-0.001,0.1-0.001,0.154v0.034
	c-0.001,0.034-0.001,0.086-0.001,0.12v0.061c0,0.034-0.001,0.064-0.001,0.098v0.063c-0.001,0.034-0.001,0.057-0.001,0.092
	l-0.001,0.067v0.093l-0.001,0.065v0.089c0,0.022,0,0.048-0.001,0.069v0.249c-0.001,0.022-0.001,0.042-0.001,0.064v0.561
	c0,0.045,0,0.091,0.001,0.136v0.212l0.001,0.043c0,0.063,0,0.126,0.001,0.19v0.048c0,0.048,0.001,0.096,0.001,0.144v0.063
	c0.001,0.045,0.001,0.089,0.001,0.134v0.06c0.001,0.055,0.001,0.109,0.001,0.164v0.028c0.001,0.062,0.001,0.125,0.001,0.187
	l0.001,0.062c0.001,0.044,0.001,0.088,0.001,0.132c0,0.027,0,0.039,0.001,0.066c0,0.045,0.001,0.09,0.001,0.135
	c0,0.02,0,0.037,0.001,0.058l0.002,0.188v0.031l0.002,0.157l0.001,0.066l0.002,0.131l0.001,0.063l0.002,0.144l0.001,0.048
	c0.001,0.061,0.002,0.123,0.003,0.184l0.001,0.064l0.002,0.125c0,0.027,0.001,0.05,0.001,0.077l0.002,0.12
	c0,0.02,0.001,0.049,0.001,0.069c0.001,0.058,0.002,0.115,0.003,0.173l0.001,0.046c0.001,0.051,0.001,0.103,0.003,0.154l0.001,0.071
	c0.001,0.039,0.001,0.079,0.003,0.118l0.001,0.078c0.001,0.04,0.002,0.081,0.003,0.121l0.001,0.068l0.004,0.178l0.002,0.072
	c0.001,0.038,0.001,0.077,0.003,0.115l0.002,0.085c0.001,0.035,0.001,0.071,0.003,0.106l0.002,0.084
	c0.001,0.042,0.002,0.083,0.003,0.125c0.001,0.034,0.002,0.062,0.003,0.096l0.004,0.141l0.002,0.086
	c0.001,0.034,0.002,0.067,0.003,0.101c0.001,0.027,0.002,0.063,0.003,0.09c0.001,0.033,0.002,0.067,0.003,0.1
	c0.001,0.034,0.002,0.054,0.003,0.088c0.001,0.047,0.003,0.094,0.005,0.141c0.001,0.034,0.002,0.085,0.003,0.119
	c0.001,0.031,0.002,0.063,0.003,0.094l0.003,0.099l0.003,0.088l0.003,0.098l0.003,0.087c0.002,0.068,0.005,0.133,0.007,0.201
	l0.002,0.062l0.004,0.111c0.001,0.024,0.001,0.048,0.003,0.073l0.003,0.11c0.001,0.025,0.002,0.049,0.003,0.074
	c0.002,0.041,0.003,0.071,0.004,0.112l0.002,0.05c0.003,0.081,0.006,0.152,0.008,0.233c0.001,0.02,0.001,0.038,0.003,0.058
	c0.001,0.034,0.003,0.079,0.004,0.113l0.003,0.073l0.005,0.111c0.001,0.022,0.001,0.043,0.003,0.065
	c0.005,0.135,0.01,0.265,0.016,0.401c0.001,0.018,0.002,0.037,0.003,0.055c0.001,0.041,0.003,0.082,0.005,0.122l0.002,0.055
	c0.002,0.041,0.004,0.086,0.005,0.126l0.002,0.033l0.012,0.28l0.001,0.019c0.002,0.047,0.003,0.085,0.006,0.132l0.002,0.047
	l0.006,0.131l0.002,0.039l0.021,0.45l0.001,0.013c0.003,0.047,0.005,0.097,0.007,0.145l0.001,0.031
	c0.003,0.047,0.005,0.098,0.007,0.145l0.001,0.004c0.008,0.155,0.016,0.314,0.024,0.469l0.001,0.021
	c0.003,0.054,0.005,0.096,0.008,0.15l0.001,0.013c0.012,0.216,0.023,0.421,0.035,0.637v0.003c0.283,5.019,0.745,9.986,1.388,14.901
	c0.021,0.16,0.044,0.32,0.069,0.479c0.018,0.159,0.037,0.32,0.059,0.479c0.006,0.046,0.012,0.087,0.018,0.133l0.001,0.005
	c0.011,0.079,0.021,0.158,0.033,0.237l0.009,0.064l0.005,0.034c0.045,0.329,0.091,0.658,0.138,0.986
	c1.523,10.436,10.467,18.178,21.013,18.189c11.823,0.001,21.409-9.583,21.41-21.407c0-0.982-0.067-1.962-0.202-2.934l-0.127-0.917
	c-0.02-0.144-0.042-0.287-0.064-0.429c-0.017-0.163-0.036-0.326-0.058-0.489c-0.897-6.928-1.347-13.908-1.347-20.894
	c-0.007-38.342,13.761-75.411,38.795-104.453c0.106-0.124,0.212-0.249,0.315-0.374c0.099-0.108,0.196-0.216,0.292-0.326l0.613-0.697
	c7.773-8.864,6.916-22.344-1.917-30.153C76.886,63.227,71.879,61.33,66.693,61.335L66.693,61.335z"/>
<g>
</g>
<g>
</g>
<g>
</g>
<g>
</g>
<g>
</g>
<g>
</g>
<g>
</g>
<g>
</g>
<g>
</g>
<g>
</g>
<g>
</g>
<g>
</g>
<g>
</g>
<g>
</g>
<g>
</g>
</svg>
